<?xml version="1.0" encoding="utf-8" standalone="no"?>
<!DOCTYPE svg PUBLIC "-//W3C//DTD SVG 1.1//EN"
  "http://www.w3.org/Graphics/SVG/1.1/DTD/svg11.dtd">
<!-- Created with matplotlib (https://matplotlib.org/) -->
<svg height="288pt" version="1.1" viewBox="0 0 432 288" width="432pt" xmlns="http://www.w3.org/2000/svg" xmlns:xlink="http://www.w3.org/1999/xlink">
 <defs>
  <style type="text/css">
*{stroke-linecap:butt;stroke-linejoin:round;}
  </style>
 </defs>
 <g id="figure_1">
  <g id="patch_1">
   <path d="M 0 288 
L 432 288 
L 432 0 
L 0 0 
z
" style="fill:#ffffff;"/>
  </g>
  <g id="axes_1">
   <g id="patch_2">
    <path d="M 54 252 
L 388.8 252 
L 388.8 34.56 
L 54 34.56 
z
" style="fill:#ffffff;"/>
   </g>
   <g id="matplotlib.axis_1">
    <g id="xtick_1">
     <g id="text_1">
      <!-- 0 -->
      <defs>
       <path d="M 4.15625 35.296875 
Q 4.15625 48 6.765625 55.734375 
Q 9.375 63.484375 14.515625 67.671875 
Q 19.671875 71.875 27.484375 71.875 
Q 33.25 71.875 37.59375 69.546875 
Q 41.9375 67.234375 44.765625 62.859375 
Q 47.609375 58.5 49.21875 52.21875 
Q 50.828125 45.953125 50.828125 35.296875 
Q 50.828125 22.703125 48.234375 14.96875 
Q 45.65625 7.234375 40.5 3 
Q 35.359375 -1.21875 27.484375 -1.21875 
Q 17.140625 -1.21875 11.234375 6.203125 
Q 4.15625 15.140625 4.15625 35.296875 
z
M 13.1875 35.296875 
Q 13.1875 17.671875 17.3125 11.828125 
Q 21.4375 6 27.484375 6 
Q 33.546875 6 37.671875 11.859375 
Q 41.796875 17.71875 41.796875 35.296875 
Q 41.796875 52.984375 37.671875 58.78125 
Q 33.546875 64.59375 27.390625 64.59375 
Q 21.34375 64.59375 17.71875 59.46875 
Q 13.1875 52.9375 13.1875 35.296875 
z
" id="ArialMT-48"/>
      </defs>
      <g style="fill:#262626;" transform="translate(58.757676 266.157812)scale(0.1 -0.1)">
       <use xlink:href="#ArialMT-48"/>
      </g>
     </g>
    </g>
    <g id="xtick_2">
     <g id="text_2">
      <!-- 1 -->
      <defs>
       <path d="M 37.25 0 
L 28.46875 0 
L 28.46875 56 
Q 25.296875 52.984375 20.140625 49.953125 
Q 14.984375 46.921875 10.890625 45.40625 
L 10.890625 53.90625 
Q 18.265625 57.375 23.78125 62.296875 
Q 29.296875 67.234375 31.59375 71.875 
L 37.25 71.875 
z
" id="ArialMT-49"/>
      </defs>
      <g style="fill:#262626;" transform="translate(97.098274 266.157812)scale(0.1 -0.1)">
       <use xlink:href="#ArialMT-49"/>
      </g>
     </g>
    </g>
    <g id="xtick_3">
     <g id="text_3">
      <!-- 2 -->
      <defs>
       <path d="M 50.34375 8.453125 
L 50.34375 0 
L 3.03125 0 
Q 2.9375 3.171875 4.046875 6.109375 
Q 5.859375 10.9375 9.828125 15.625 
Q 13.8125 20.3125 21.34375 26.46875 
Q 33.015625 36.03125 37.109375 41.625 
Q 41.21875 47.21875 41.21875 52.203125 
Q 41.21875 57.421875 37.46875 61 
Q 33.734375 64.59375 27.734375 64.59375 
Q 21.390625 64.59375 17.578125 60.78125 
Q 13.765625 56.984375 13.71875 50.25 
L 4.6875 51.171875 
Q 5.609375 61.28125 11.65625 66.578125 
Q 17.71875 71.875 27.9375 71.875 
Q 38.234375 71.875 44.234375 66.15625 
Q 50.25 60.453125 50.25 52 
Q 50.25 47.703125 48.484375 43.546875 
Q 46.734375 39.40625 42.65625 34.8125 
Q 38.578125 30.21875 29.109375 22.21875 
Q 21.1875 15.578125 18.9375 13.203125 
Q 16.703125 10.84375 15.234375 8.453125 
z
" id="ArialMT-50"/>
      </defs>
      <g style="fill:#262626;" transform="translate(135.438871 266.157812)scale(0.1 -0.1)">
       <use xlink:href="#ArialMT-50"/>
      </g>
     </g>
    </g>
    <g id="xtick_4">
     <g id="text_4">
      <!-- 3 -->
      <defs>
       <path d="M 4.203125 18.890625 
L 12.984375 20.0625 
Q 14.5 12.59375 18.140625 9.296875 
Q 21.78125 6 27 6 
Q 33.203125 6 37.46875 10.296875 
Q 41.75 14.59375 41.75 20.953125 
Q 41.75 27 37.796875 30.921875 
Q 33.84375 34.859375 27.734375 34.859375 
Q 25.25 34.859375 21.53125 33.890625 
L 22.515625 41.609375 
Q 23.390625 41.5 23.921875 41.5 
Q 29.546875 41.5 34.03125 44.421875 
Q 38.53125 47.359375 38.53125 53.46875 
Q 38.53125 58.296875 35.25 61.46875 
Q 31.984375 64.65625 26.8125 64.65625 
Q 21.6875 64.65625 18.265625 61.421875 
Q 14.84375 58.203125 13.875 51.765625 
L 5.078125 53.328125 
Q 6.6875 62.15625 12.390625 67.015625 
Q 18.109375 71.875 26.609375 71.875 
Q 32.46875 71.875 37.390625 69.359375 
Q 42.328125 66.84375 44.9375 62.5 
Q 47.5625 58.15625 47.5625 53.265625 
Q 47.5625 48.640625 45.0625 44.828125 
Q 42.578125 41.015625 37.703125 38.765625 
Q 44.046875 37.3125 47.5625 32.6875 
Q 51.078125 28.078125 51.078125 21.140625 
Q 51.078125 11.765625 44.234375 5.25 
Q 37.40625 -1.265625 26.953125 -1.265625 
Q 17.53125 -1.265625 11.296875 4.34375 
Q 5.078125 9.96875 4.203125 18.890625 
z
" id="ArialMT-51"/>
      </defs>
      <g style="fill:#262626;" transform="translate(173.779469 266.157812)scale(0.1 -0.1)">
       <use xlink:href="#ArialMT-51"/>
      </g>
     </g>
    </g>
    <g id="xtick_5">
     <g id="text_5">
      <!-- 4 -->
      <defs>
       <path d="M 32.328125 0 
L 32.328125 17.140625 
L 1.265625 17.140625 
L 1.265625 25.203125 
L 33.9375 71.578125 
L 41.109375 71.578125 
L 41.109375 25.203125 
L 50.78125 25.203125 
L 50.78125 17.140625 
L 41.109375 17.140625 
L 41.109375 0 
z
M 32.328125 25.203125 
L 32.328125 57.46875 
L 9.90625 25.203125 
z
" id="ArialMT-52"/>
      </defs>
      <g style="fill:#262626;" transform="translate(212.120066 266.157812)scale(0.1 -0.1)">
       <use xlink:href="#ArialMT-52"/>
      </g>
     </g>
    </g>
    <g id="xtick_6">
     <g id="text_6">
      <!-- 5 -->
      <defs>
       <path d="M 4.15625 18.75 
L 13.375 19.53125 
Q 14.40625 12.796875 18.140625 9.390625 
Q 21.875 6 27.15625 6 
Q 33.5 6 37.890625 10.78125 
Q 42.28125 15.578125 42.28125 23.484375 
Q 42.28125 31 38.0625 35.34375 
Q 33.84375 39.703125 27 39.703125 
Q 22.75 39.703125 19.328125 37.765625 
Q 15.921875 35.84375 13.96875 32.765625 
L 5.71875 33.84375 
L 12.640625 70.609375 
L 48.25 70.609375 
L 48.25 62.203125 
L 19.671875 62.203125 
L 15.828125 42.96875 
Q 22.265625 47.46875 29.34375 47.46875 
Q 38.71875 47.46875 45.15625 40.96875 
Q 51.609375 34.46875 51.609375 24.265625 
Q 51.609375 14.546875 45.953125 7.46875 
Q 39.0625 -1.21875 27.15625 -1.21875 
Q 17.390625 -1.21875 11.203125 4.25 
Q 5.03125 9.71875 4.15625 18.75 
z
" id="ArialMT-53"/>
      </defs>
      <g style="fill:#262626;" transform="translate(250.460664 266.157812)scale(0.1 -0.1)">
       <use xlink:href="#ArialMT-53"/>
      </g>
     </g>
    </g>
    <g id="xtick_7">
     <g id="text_7">
      <!-- 6 -->
      <defs>
       <path d="M 49.75 54.046875 
L 41.015625 53.375 
Q 39.84375 58.546875 37.703125 60.890625 
Q 34.125 64.65625 28.90625 64.65625 
Q 24.703125 64.65625 21.53125 62.3125 
Q 17.390625 59.28125 14.984375 53.46875 
Q 12.59375 47.65625 12.5 36.921875 
Q 15.671875 41.75 20.265625 44.09375 
Q 24.859375 46.4375 29.890625 46.4375 
Q 38.671875 46.4375 44.84375 39.96875 
Q 51.03125 33.5 51.03125 23.25 
Q 51.03125 16.5 48.125 10.71875 
Q 45.21875 4.9375 40.140625 1.859375 
Q 35.0625 -1.21875 28.609375 -1.21875 
Q 17.625 -1.21875 10.6875 6.859375 
Q 3.765625 14.9375 3.765625 33.5 
Q 3.765625 54.25 11.421875 63.671875 
Q 18.109375 71.875 29.4375 71.875 
Q 37.890625 71.875 43.28125 67.140625 
Q 48.6875 62.40625 49.75 54.046875 
z
M 13.875 23.1875 
Q 13.875 18.65625 15.796875 14.5 
Q 17.71875 10.359375 21.1875 8.171875 
Q 24.65625 6 28.46875 6 
Q 34.03125 6 38.03125 10.484375 
Q 42.046875 14.984375 42.046875 22.703125 
Q 42.046875 30.125 38.078125 34.390625 
Q 34.125 38.671875 28.125 38.671875 
Q 22.171875 38.671875 18.015625 34.390625 
Q 13.875 30.125 13.875 23.1875 
z
" id="ArialMT-54"/>
      </defs>
      <g style="fill:#262626;" transform="translate(288.801262 266.157812)scale(0.1 -0.1)">
       <use xlink:href="#ArialMT-54"/>
      </g>
     </g>
    </g>
    <g id="xtick_8">
     <g id="text_8">
      <!-- 7 -->
      <defs>
       <path d="M 4.734375 62.203125 
L 4.734375 70.65625 
L 51.078125 70.65625 
L 51.078125 63.8125 
Q 44.234375 56.546875 37.515625 44.484375 
Q 30.8125 32.421875 27.15625 19.671875 
Q 24.515625 10.6875 23.78125 0 
L 14.75 0 
Q 14.890625 8.453125 18.0625 20.40625 
Q 21.234375 32.375 27.171875 43.484375 
Q 33.109375 54.59375 39.796875 62.203125 
z
" id="ArialMT-55"/>
      </defs>
      <g style="fill:#262626;" transform="translate(327.141859 266.157812)scale(0.1 -0.1)">
       <use xlink:href="#ArialMT-55"/>
      </g>
     </g>
    </g>
    <g id="xtick_9">
     <g id="text_9">
      <!-- 8 -->
      <defs>
       <path d="M 17.671875 38.8125 
Q 12.203125 40.828125 9.5625 44.53125 
Q 6.9375 48.25 6.9375 53.421875 
Q 6.9375 61.234375 12.546875 66.546875 
Q 18.171875 71.875 27.484375 71.875 
Q 36.859375 71.875 42.578125 66.421875 
Q 48.296875 60.984375 48.296875 53.171875 
Q 48.296875 48.1875 45.671875 44.5 
Q 43.0625 40.828125 37.75 38.8125 
Q 44.34375 36.671875 47.78125 31.875 
Q 51.21875 27.09375 51.21875 20.453125 
Q 51.21875 11.28125 44.71875 5.03125 
Q 38.234375 -1.21875 27.640625 -1.21875 
Q 17.046875 -1.21875 10.546875 5.046875 
Q 4.046875 11.328125 4.046875 20.703125 
Q 4.046875 27.6875 7.59375 32.390625 
Q 11.140625 37.109375 17.671875 38.8125 
z
M 15.921875 53.71875 
Q 15.921875 48.640625 19.1875 45.40625 
Q 22.46875 42.1875 27.6875 42.1875 
Q 32.765625 42.1875 36.015625 45.375 
Q 39.265625 48.578125 39.265625 53.21875 
Q 39.265625 58.0625 35.90625 61.359375 
Q 32.5625 64.65625 27.59375 64.65625 
Q 22.5625 64.65625 19.234375 61.421875 
Q 15.921875 58.203125 15.921875 53.71875 
z
M 13.09375 20.65625 
Q 13.09375 16.890625 14.875 13.375 
Q 16.65625 9.859375 20.171875 7.921875 
Q 23.6875 6 27.734375 6 
Q 34.03125 6 38.125 10.046875 
Q 42.234375 14.109375 42.234375 20.359375 
Q 42.234375 26.703125 38.015625 30.859375 
Q 33.796875 35.015625 27.4375 35.015625 
Q 21.234375 35.015625 17.15625 30.90625 
Q 13.09375 26.8125 13.09375 20.65625 
z
" id="ArialMT-56"/>
      </defs>
      <g style="fill:#262626;" transform="translate(365.482457 266.157812)scale(0.1 -0.1)">
       <use xlink:href="#ArialMT-56"/>
      </g>
     </g>
    </g>
    <g id="text_10">
     <!-- PosBurstRate -->
     <defs>
      <path d="M 7.71875 0 
L 7.71875 71.578125 
L 34.71875 71.578125 
Q 41.84375 71.578125 45.609375 70.90625 
Q 50.875 70.015625 54.4375 67.546875 
Q 58.015625 65.09375 60.1875 60.640625 
Q 62.359375 56.203125 62.359375 50.875 
Q 62.359375 41.75 56.546875 35.421875 
Q 50.734375 29.109375 35.546875 29.109375 
L 17.1875 29.109375 
L 17.1875 0 
z
M 17.1875 37.546875 
L 35.6875 37.546875 
Q 44.875 37.546875 48.734375 40.96875 
Q 52.59375 44.390625 52.59375 50.59375 
Q 52.59375 55.078125 50.3125 58.265625 
Q 48.046875 61.46875 44.34375 62.5 
Q 41.9375 63.140625 35.5 63.140625 
L 17.1875 63.140625 
z
" id="ArialMT-80"/>
      <path d="M 3.328125 25.921875 
Q 3.328125 40.328125 11.328125 47.265625 
Q 18.015625 53.03125 27.640625 53.03125 
Q 38.328125 53.03125 45.109375 46.015625 
Q 51.90625 39.015625 51.90625 26.65625 
Q 51.90625 16.65625 48.90625 10.90625 
Q 45.90625 5.171875 40.15625 2 
Q 34.421875 -1.171875 27.640625 -1.171875 
Q 16.75 -1.171875 10.03125 5.8125 
Q 3.328125 12.796875 3.328125 25.921875 
z
M 12.359375 25.921875 
Q 12.359375 15.96875 16.703125 11.015625 
Q 21.046875 6.0625 27.640625 6.0625 
Q 34.1875 6.0625 38.53125 11.03125 
Q 42.875 16.015625 42.875 26.21875 
Q 42.875 35.84375 38.5 40.796875 
Q 34.125 45.75 27.640625 45.75 
Q 21.046875 45.75 16.703125 40.8125 
Q 12.359375 35.890625 12.359375 25.921875 
z
" id="ArialMT-111"/>
      <path d="M 3.078125 15.484375 
L 11.765625 16.84375 
Q 12.5 11.625 15.84375 8.84375 
Q 19.1875 6.0625 25.203125 6.0625 
Q 31.25 6.0625 34.171875 8.515625 
Q 37.109375 10.984375 37.109375 14.3125 
Q 37.109375 17.28125 34.515625 19 
Q 32.71875 20.171875 25.53125 21.96875 
Q 15.875 24.421875 12.140625 26.203125 
Q 8.40625 27.984375 6.46875 31.125 
Q 4.546875 34.28125 4.546875 38.09375 
Q 4.546875 41.546875 6.125 44.5 
Q 7.71875 47.46875 10.453125 49.421875 
Q 12.5 50.921875 16.03125 51.96875 
Q 19.578125 53.03125 23.640625 53.03125 
Q 29.734375 53.03125 34.34375 51.265625 
Q 38.96875 49.515625 41.15625 46.5 
Q 43.359375 43.5 44.1875 38.484375 
L 35.59375 37.3125 
Q 35.015625 41.3125 32.203125 43.546875 
Q 29.390625 45.796875 24.265625 45.796875 
Q 18.21875 45.796875 15.625 43.796875 
Q 13.03125 41.796875 13.03125 39.109375 
Q 13.03125 37.40625 14.109375 36.03125 
Q 15.1875 34.625 17.484375 33.6875 
Q 18.796875 33.203125 25.25 31.453125 
Q 34.578125 28.953125 38.25 27.359375 
Q 41.9375 25.78125 44.03125 22.75 
Q 46.140625 19.734375 46.140625 15.234375 
Q 46.140625 10.84375 43.578125 6.953125 
Q 41.015625 3.078125 36.171875 0.953125 
Q 31.34375 -1.171875 25.25 -1.171875 
Q 15.140625 -1.171875 9.84375 3.03125 
Q 4.546875 7.234375 3.078125 15.484375 
z
" id="ArialMT-115"/>
      <path d="M 7.328125 0 
L 7.328125 71.578125 
L 34.1875 71.578125 
Q 42.390625 71.578125 47.34375 69.40625 
Q 52.296875 67.234375 55.09375 62.71875 
Q 57.90625 58.203125 57.90625 53.265625 
Q 57.90625 48.6875 55.421875 44.625 
Q 52.9375 40.578125 47.90625 38.09375 
Q 54.390625 36.1875 57.875 31.59375 
Q 61.375 27 61.375 20.75 
Q 61.375 15.71875 59.25 11.390625 
Q 57.125 7.078125 54 4.734375 
Q 50.875 2.390625 46.15625 1.1875 
Q 41.453125 0 34.625 0 
z
M 16.796875 41.5 
L 32.28125 41.5 
Q 38.578125 41.5 41.3125 42.328125 
Q 44.921875 43.40625 46.75 45.890625 
Q 48.578125 48.390625 48.578125 52.15625 
Q 48.578125 55.71875 46.875 58.421875 
Q 45.171875 61.140625 41.984375 62.140625 
Q 38.8125 63.140625 31.109375 63.140625 
L 16.796875 63.140625 
z
M 16.796875 8.453125 
L 34.625 8.453125 
Q 39.203125 8.453125 41.0625 8.796875 
Q 44.34375 9.375 46.53125 10.734375 
Q 48.734375 12.109375 50.140625 14.71875 
Q 51.5625 17.328125 51.5625 20.75 
Q 51.5625 24.75 49.515625 27.703125 
Q 47.46875 30.671875 43.828125 31.859375 
Q 40.1875 33.0625 33.34375 33.0625 
L 16.796875 33.0625 
z
" id="ArialMT-66"/>
      <path d="M 40.578125 0 
L 40.578125 7.625 
Q 34.515625 -1.171875 24.125 -1.171875 
Q 19.53125 -1.171875 15.546875 0.578125 
Q 11.578125 2.34375 9.640625 5 
Q 7.71875 7.671875 6.9375 11.53125 
Q 6.390625 14.109375 6.390625 19.734375 
L 6.390625 51.859375 
L 15.1875 51.859375 
L 15.1875 23.09375 
Q 15.1875 16.21875 15.71875 13.8125 
Q 16.546875 10.359375 19.234375 8.375 
Q 21.921875 6.390625 25.875 6.390625 
Q 29.828125 6.390625 33.296875 8.421875 
Q 36.765625 10.453125 38.203125 13.9375 
Q 39.65625 17.4375 39.65625 24.078125 
L 39.65625 51.859375 
L 48.4375 51.859375 
L 48.4375 0 
z
" id="ArialMT-117"/>
      <path d="M 6.5 0 
L 6.5 51.859375 
L 14.40625 51.859375 
L 14.40625 44 
Q 17.4375 49.515625 20 51.265625 
Q 22.5625 53.03125 25.640625 53.03125 
Q 30.078125 53.03125 34.671875 50.203125 
L 31.640625 42.046875 
Q 28.421875 43.953125 25.203125 43.953125 
Q 22.3125 43.953125 20.015625 42.21875 
Q 17.71875 40.484375 16.75 37.40625 
Q 15.28125 32.71875 15.28125 27.15625 
L 15.28125 0 
z
" id="ArialMT-114"/>
      <path d="M 25.78125 7.859375 
L 27.046875 0.09375 
Q 23.34375 -0.6875 20.40625 -0.6875 
Q 15.625 -0.6875 12.984375 0.828125 
Q 10.359375 2.34375 9.28125 4.8125 
Q 8.203125 7.28125 8.203125 15.1875 
L 8.203125 45.015625 
L 1.765625 45.015625 
L 1.765625 51.859375 
L 8.203125 51.859375 
L 8.203125 64.703125 
L 16.9375 69.96875 
L 16.9375 51.859375 
L 25.78125 51.859375 
L 25.78125 45.015625 
L 16.9375 45.015625 
L 16.9375 14.703125 
Q 16.9375 10.9375 17.40625 9.859375 
Q 17.875 8.796875 18.921875 8.15625 
Q 19.96875 7.515625 21.921875 7.515625 
Q 23.390625 7.515625 25.78125 7.859375 
z
" id="ArialMT-116"/>
      <path d="M 7.859375 0 
L 7.859375 71.578125 
L 39.59375 71.578125 
Q 49.171875 71.578125 54.140625 69.640625 
Q 59.125 67.71875 62.109375 62.828125 
Q 65.09375 57.953125 65.09375 52.046875 
Q 65.09375 44.4375 60.15625 39.203125 
Q 55.21875 33.984375 44.921875 32.5625 
Q 48.6875 30.765625 50.640625 29 
Q 54.78125 25.203125 58.5 19.484375 
L 70.953125 0 
L 59.03125 0 
L 49.5625 14.890625 
Q 45.40625 21.34375 42.71875 24.75 
Q 40.046875 28.171875 37.921875 29.53125 
Q 35.796875 30.90625 33.59375 31.453125 
Q 31.984375 31.78125 28.328125 31.78125 
L 17.328125 31.78125 
L 17.328125 0 
z
M 17.328125 39.984375 
L 37.703125 39.984375 
Q 44.1875 39.984375 47.84375 41.328125 
Q 51.515625 42.671875 53.421875 45.625 
Q 55.328125 48.578125 55.328125 52.046875 
Q 55.328125 57.125 51.640625 60.390625 
Q 47.953125 63.671875 39.984375 63.671875 
L 17.328125 63.671875 
z
" id="ArialMT-82"/>
      <path d="M 40.4375 6.390625 
Q 35.546875 2.25 31.03125 0.53125 
Q 26.515625 -1.171875 21.34375 -1.171875 
Q 12.796875 -1.171875 8.203125 3 
Q 3.609375 7.171875 3.609375 13.671875 
Q 3.609375 17.484375 5.34375 20.625 
Q 7.078125 23.78125 9.890625 25.6875 
Q 12.703125 27.59375 16.21875 28.5625 
Q 18.796875 29.25 24.03125 29.890625 
Q 34.671875 31.15625 39.703125 32.90625 
Q 39.75 34.71875 39.75 35.203125 
Q 39.75 40.578125 37.25 42.78125 
Q 33.890625 45.75 27.25 45.75 
Q 21.046875 45.75 18.09375 43.578125 
Q 15.140625 41.40625 13.71875 35.890625 
L 5.125 37.0625 
Q 6.296875 42.578125 8.984375 45.96875 
Q 11.671875 49.359375 16.75 51.1875 
Q 21.828125 53.03125 28.515625 53.03125 
Q 35.15625 53.03125 39.296875 51.46875 
Q 43.453125 49.90625 45.40625 47.53125 
Q 47.359375 45.171875 48.140625 41.546875 
Q 48.578125 39.3125 48.578125 33.453125 
L 48.578125 21.734375 
Q 48.578125 9.46875 49.140625 6.21875 
Q 49.703125 2.984375 51.375 0 
L 42.1875 0 
Q 40.828125 2.734375 40.4375 6.390625 
z
M 39.703125 26.03125 
Q 34.90625 24.078125 25.34375 22.703125 
Q 19.921875 21.921875 17.671875 20.9375 
Q 15.4375 19.96875 14.203125 18.09375 
Q 12.984375 16.21875 12.984375 13.921875 
Q 12.984375 10.40625 15.640625 8.0625 
Q 18.3125 5.71875 23.4375 5.71875 
Q 28.515625 5.71875 32.46875 7.9375 
Q 36.421875 10.15625 38.28125 14.015625 
Q 39.703125 17 39.703125 22.796875 
z
" id="ArialMT-97"/>
      <path d="M 42.09375 16.703125 
L 51.171875 15.578125 
Q 49.03125 7.625 43.21875 3.21875 
Q 37.40625 -1.171875 28.375 -1.171875 
Q 17 -1.171875 10.328125 5.828125 
Q 3.65625 12.84375 3.65625 25.484375 
Q 3.65625 38.578125 10.390625 45.796875 
Q 17.140625 53.03125 27.875 53.03125 
Q 38.28125 53.03125 44.875 45.953125 
Q 51.46875 38.875 51.46875 26.03125 
Q 51.46875 25.25 51.421875 23.6875 
L 12.75 23.6875 
Q 13.234375 15.140625 17.578125 10.59375 
Q 21.921875 6.0625 28.421875 6.0625 
Q 33.25 6.0625 36.671875 8.59375 
Q 40.09375 11.140625 42.09375 16.703125 
z
M 13.234375 30.90625 
L 42.1875 30.90625 
Q 41.609375 37.453125 38.875 40.71875 
Q 34.671875 45.796875 27.984375 45.796875 
Q 21.921875 45.796875 17.796875 41.75 
Q 13.671875 37.703125 13.234375 30.90625 
z
" id="ArialMT-101"/>
     </defs>
     <g style="fill:#262626;" transform="translate(190.553906 279.303125)scale(0.1 -0.1)">
      <use xlink:href="#ArialMT-80"/>
      <use x="66.699219" xlink:href="#ArialMT-111"/>
      <use x="122.314453" xlink:href="#ArialMT-115"/>
      <use x="172.314453" xlink:href="#ArialMT-66"/>
      <use x="239.013672" xlink:href="#ArialMT-117"/>
      <use x="294.628906" xlink:href="#ArialMT-114"/>
      <use x="327.929688" xlink:href="#ArialMT-115"/>
      <use x="377.929688" xlink:href="#ArialMT-116"/>
      <use x="405.712891" xlink:href="#ArialMT-82"/>
      <use x="477.929688" xlink:href="#ArialMT-97"/>
      <use x="533.544922" xlink:href="#ArialMT-116"/>
      <use x="561.328125" xlink:href="#ArialMT-101"/>
     </g>
    </g>
   </g>
   <g id="matplotlib.axis_2">
    <g id="ytick_1">
     <g id="text_11">
      <!-- 0.00 -->
      <defs>
       <path d="M 9.078125 0 
L 9.078125 10.015625 
L 19.09375 10.015625 
L 19.09375 0 
z
" id="ArialMT-46"/>
      </defs>
      <g style="fill:#262626;" transform="translate(27.539062 255.578906)scale(0.1 -0.1)">
       <use xlink:href="#ArialMT-48"/>
       <use x="55.615234" xlink:href="#ArialMT-46"/>
       <use x="83.398438" xlink:href="#ArialMT-48"/>
       <use x="139.013672" xlink:href="#ArialMT-48"/>
      </g>
     </g>
    </g>
    <g id="ytick_2">
     <g id="text_12">
      <!-- 0.05 -->
      <g style="fill:#262626;" transform="translate(27.539062 226.028675)scale(0.1 -0.1)">
       <use xlink:href="#ArialMT-48"/>
       <use x="55.615234" xlink:href="#ArialMT-46"/>
       <use x="83.398438" xlink:href="#ArialMT-48"/>
       <use x="139.013672" xlink:href="#ArialMT-53"/>
      </g>
     </g>
    </g>
    <g id="ytick_3">
     <g id="text_13">
      <!-- 0.10 -->
      <g style="fill:#262626;" transform="translate(27.539062 196.478444)scale(0.1 -0.1)">
       <use xlink:href="#ArialMT-48"/>
       <use x="55.615234" xlink:href="#ArialMT-46"/>
       <use x="83.398438" xlink:href="#ArialMT-49"/>
       <use x="139.013672" xlink:href="#ArialMT-48"/>
      </g>
     </g>
    </g>
    <g id="ytick_4">
     <g id="text_14">
      <!-- 0.15 -->
      <g style="fill:#262626;" transform="translate(27.539062 166.928213)scale(0.1 -0.1)">
       <use xlink:href="#ArialMT-48"/>
       <use x="55.615234" xlink:href="#ArialMT-46"/>
       <use x="83.398438" xlink:href="#ArialMT-49"/>
       <use x="139.013672" xlink:href="#ArialMT-53"/>
      </g>
     </g>
    </g>
    <g id="ytick_5">
     <g id="text_15">
      <!-- 0.20 -->
      <g style="fill:#262626;" transform="translate(27.539062 137.377982)scale(0.1 -0.1)">
       <use xlink:href="#ArialMT-48"/>
       <use x="55.615234" xlink:href="#ArialMT-46"/>
       <use x="83.398438" xlink:href="#ArialMT-50"/>
       <use x="139.013672" xlink:href="#ArialMT-48"/>
      </g>
     </g>
    </g>
    <g id="ytick_6">
     <g id="text_16">
      <!-- 0.25 -->
      <g style="fill:#262626;" transform="translate(27.539062 107.827751)scale(0.1 -0.1)">
       <use xlink:href="#ArialMT-48"/>
       <use x="55.615234" xlink:href="#ArialMT-46"/>
       <use x="83.398438" xlink:href="#ArialMT-50"/>
       <use x="139.013672" xlink:href="#ArialMT-53"/>
      </g>
     </g>
    </g>
    <g id="ytick_7">
     <g id="text_17">
      <!-- 0.30 -->
      <g style="fill:#262626;" transform="translate(27.539062 78.27752)scale(0.1 -0.1)">
       <use xlink:href="#ArialMT-48"/>
       <use x="55.615234" xlink:href="#ArialMT-46"/>
       <use x="83.398438" xlink:href="#ArialMT-51"/>
       <use x="139.013672" xlink:href="#ArialMT-48"/>
      </g>
     </g>
    </g>
    <g id="ytick_8">
     <g id="text_18">
      <!-- 0.35 -->
      <g style="fill:#262626;" transform="translate(27.539062 48.727289)scale(0.1 -0.1)">
       <use xlink:href="#ArialMT-48"/>
       <use x="55.615234" xlink:href="#ArialMT-46"/>
       <use x="83.398438" xlink:href="#ArialMT-51"/>
       <use x="139.013672" xlink:href="#ArialMT-53"/>
      </g>
     </g>
    </g>
    <g id="text_19">
     <!-- Probability -->
     <defs>
      <path d="M 14.703125 0 
L 6.546875 0 
L 6.546875 71.578125 
L 15.328125 71.578125 
L 15.328125 46.046875 
Q 20.90625 53.03125 29.546875 53.03125 
Q 34.328125 53.03125 38.59375 51.09375 
Q 42.875 49.171875 45.625 45.671875 
Q 48.390625 42.1875 49.953125 37.25 
Q 51.515625 32.328125 51.515625 26.703125 
Q 51.515625 13.375 44.921875 6.09375 
Q 38.328125 -1.171875 29.109375 -1.171875 
Q 19.921875 -1.171875 14.703125 6.5 
z
M 14.59375 26.3125 
Q 14.59375 17 17.140625 12.84375 
Q 21.296875 6.0625 28.375 6.0625 
Q 34.125 6.0625 38.328125 11.0625 
Q 42.53125 16.0625 42.53125 25.984375 
Q 42.53125 36.140625 38.5 40.96875 
Q 34.46875 45.796875 28.765625 45.796875 
Q 23 45.796875 18.796875 40.796875 
Q 14.59375 35.796875 14.59375 26.3125 
z
" id="ArialMT-98"/>
      <path d="M 6.640625 61.46875 
L 6.640625 71.578125 
L 15.4375 71.578125 
L 15.4375 61.46875 
z
M 6.640625 0 
L 6.640625 51.859375 
L 15.4375 51.859375 
L 15.4375 0 
z
" id="ArialMT-105"/>
      <path d="M 6.390625 0 
L 6.390625 71.578125 
L 15.1875 71.578125 
L 15.1875 0 
z
" id="ArialMT-108"/>
      <path d="M 6.203125 -19.96875 
L 5.21875 -11.71875 
Q 8.109375 -12.5 10.25 -12.5 
Q 13.1875 -12.5 14.9375 -11.515625 
Q 16.703125 -10.546875 17.828125 -8.796875 
Q 18.65625 -7.46875 20.515625 -2.25 
Q 20.75 -1.515625 21.296875 -0.09375 
L 1.609375 51.859375 
L 11.078125 51.859375 
L 21.875 21.828125 
Q 23.96875 16.109375 25.640625 9.8125 
Q 27.15625 15.875 29.25 21.625 
L 40.328125 51.859375 
L 49.125 51.859375 
L 29.390625 -0.875 
Q 26.21875 -9.421875 24.46875 -12.640625 
Q 22.125 -17 19.09375 -19.015625 
Q 16.0625 -21.046875 11.859375 -21.046875 
Q 9.328125 -21.046875 6.203125 -19.96875 
z
" id="ArialMT-121"/>
     </defs>
     <g style="fill:#262626;" transform="translate(21.434375 166.62375)rotate(-90)scale(0.1 -0.1)">
      <use xlink:href="#ArialMT-80"/>
      <use x="66.699219" xlink:href="#ArialMT-114"/>
      <use x="100" xlink:href="#ArialMT-111"/>
      <use x="155.615234" xlink:href="#ArialMT-98"/>
      <use x="211.230469" xlink:href="#ArialMT-97"/>
      <use x="266.845703" xlink:href="#ArialMT-98"/>
      <use x="322.460938" xlink:href="#ArialMT-105"/>
      <use x="344.677734" xlink:href="#ArialMT-108"/>
      <use x="366.894531" xlink:href="#ArialMT-105"/>
      <use x="389.111328" xlink:href="#ArialMT-116"/>
      <use x="416.894531" xlink:href="#ArialMT-121"/>
     </g>
    </g>
   </g>
   <g id="patch_3">
    <path clip-path="url(#p6aa85e4565)" d="M 69.729124 252 
L 74.692137 252 
L 74.692137 249.478957 
L 69.729124 249.478957 
z
" style="fill:#696969;fill-opacity:0.5;stroke:#ffffff;stroke-linejoin:miter;stroke-width:0.74235;"/>
   </g>
   <g id="patch_4">
    <path clip-path="url(#p6aa85e4565)" d="M 74.692137 252 
L 79.655149 252 
L 79.655149 247.318062 
L 74.692137 247.318062 
z
" style="fill:#696969;fill-opacity:0.5;stroke:#ffffff;stroke-linejoin:miter;stroke-width:0.74235;"/>
   </g>
   <g id="patch_5">
    <path clip-path="url(#p6aa85e4565)" d="M 79.655149 252 
L 84.618162 252 
L 84.618162 246.957913 
L 79.655149 246.957913 
z
" style="fill:#696969;fill-opacity:0.5;stroke:#ffffff;stroke-linejoin:miter;stroke-width:0.74235;"/>
   </g>
   <g id="patch_6">
    <path clip-path="url(#p6aa85e4565)" d="M 84.618162 252 
L 89.581175 252 
L 89.581175 243.716571 
L 84.618162 243.716571 
z
" style="fill:#696969;fill-opacity:0.5;stroke:#ffffff;stroke-linejoin:miter;stroke-width:0.74235;"/>
   </g>
   <g id="patch_7">
    <path clip-path="url(#p6aa85e4565)" d="M 89.581175 252 
L 94.544187 252 
L 94.544187 236.51359 
L 89.581175 236.51359 
z
" style="fill:#696969;fill-opacity:0.5;stroke:#ffffff;stroke-linejoin:miter;stroke-width:0.74235;"/>
   </g>
   <g id="patch_8">
    <path clip-path="url(#p6aa85e4565)" d="M 94.544187 252 
L 99.5072 252 
L 99.5072 226.069267 
L 94.544187 226.069267 
z
" style="fill:#696969;fill-opacity:0.5;stroke:#ffffff;stroke-linejoin:miter;stroke-width:0.74235;"/>
   </g>
   <g id="patch_9">
    <path clip-path="url(#p6aa85e4565)" d="M 99.5072 252 
L 104.470212 252 
L 104.470212 215.264795 
L 99.5072 215.264795 
z
" style="fill:#696969;fill-opacity:0.5;stroke:#ffffff;stroke-linejoin:miter;stroke-width:0.74235;"/>
   </g>
   <g id="patch_10">
    <path clip-path="url(#p6aa85e4565)" d="M 104.470212 252 
L 109.433225 252 
L 109.433225 193.655851 
L 104.470212 193.655851 
z
" style="fill:#696969;fill-opacity:0.5;stroke:#ffffff;stroke-linejoin:miter;stroke-width:0.74235;"/>
   </g>
   <g id="patch_11">
    <path clip-path="url(#p6aa85e4565)" d="M 109.433225 252 
L 114.396238 252 
L 114.396238 194.376149 
L 109.433225 194.376149 
z
" style="fill:#696969;fill-opacity:0.5;stroke:#ffffff;stroke-linejoin:miter;stroke-width:0.74235;"/>
   </g>
   <g id="patch_12">
    <path clip-path="url(#p6aa85e4565)" d="M 114.396238 252 
L 119.35925 252 
L 119.35925 186.45287 
L 114.396238 186.45287 
z
" style="fill:#696969;fill-opacity:0.5;stroke:#ffffff;stroke-linejoin:miter;stroke-width:0.74235;"/>
   </g>
   <g id="patch_13">
    <path clip-path="url(#p6aa85e4565)" d="M 119.35925 252 
L 124.322263 252 
L 124.322263 193.295702 
L 119.35925 193.295702 
z
" style="fill:#696969;fill-opacity:0.5;stroke:#ffffff;stroke-linejoin:miter;stroke-width:0.74235;"/>
   </g>
   <g id="patch_14">
    <path clip-path="url(#p6aa85e4565)" d="M 124.322263 252 
L 129.285276 252 
L 129.285276 195.816745 
L 124.322263 195.816745 
z
" style="fill:#696969;fill-opacity:0.5;stroke:#ffffff;stroke-linejoin:miter;stroke-width:0.74235;"/>
   </g>
   <g id="patch_15">
    <path clip-path="url(#p6aa85e4565)" d="M 129.285276 252 
L 134.248288 252 
L 134.248288 202.299429 
L 129.285276 202.299429 
z
" style="fill:#696969;fill-opacity:0.5;stroke:#ffffff;stroke-linejoin:miter;stroke-width:0.74235;"/>
   </g>
   <g id="patch_16">
    <path clip-path="url(#p6aa85e4565)" d="M 134.248288 252 
L 139.211301 252 
L 139.211301 214.904646 
L 134.248288 214.904646 
z
" style="fill:#696969;fill-opacity:0.5;stroke:#ffffff;stroke-linejoin:miter;stroke-width:0.74235;"/>
   </g>
   <g id="patch_17">
    <path clip-path="url(#p6aa85e4565)" d="M 139.211301 252 
L 144.174313 252 
L 144.174313 223.188075 
L 139.211301 223.188075 
z
" style="fill:#696969;fill-opacity:0.5;stroke:#ffffff;stroke-linejoin:miter;stroke-width:0.74235;"/>
   </g>
   <g id="patch_18">
    <path clip-path="url(#p6aa85e4565)" d="M 144.174313 252 
L 149.137326 252 
L 149.137326 225.709118 
L 144.174313 225.709118 
z
" style="fill:#696969;fill-opacity:0.5;stroke:#ffffff;stroke-linejoin:miter;stroke-width:0.74235;"/>
   </g>
   <g id="patch_19">
    <path clip-path="url(#p6aa85e4565)" d="M 149.137326 252 
L 154.100339 252 
L 154.100339 233.272248 
L 149.137326 233.272248 
z
" style="fill:#696969;fill-opacity:0.5;stroke:#ffffff;stroke-linejoin:miter;stroke-width:0.74235;"/>
   </g>
   <g id="patch_20">
    <path clip-path="url(#p6aa85e4565)" d="M 154.100339 252 
L 159.063351 252 
L 159.063351 241.195528 
L 154.100339 241.195528 
z
" style="fill:#696969;fill-opacity:0.5;stroke:#ffffff;stroke-linejoin:miter;stroke-width:0.74235;"/>
   </g>
   <g id="patch_21">
    <path clip-path="url(#p6aa85e4565)" d="M 159.063351 252 
L 164.026364 252 
L 164.026364 244.43687 
L 159.063351 244.43687 
z
" style="fill:#696969;fill-opacity:0.5;stroke:#ffffff;stroke-linejoin:miter;stroke-width:0.74235;"/>
   </g>
   <g id="patch_22">
    <path clip-path="url(#p6aa85e4565)" d="M 164.026364 252 
L 168.989377 252 
L 168.989377 246.957913 
L 164.026364 246.957913 
z
" style="fill:#696969;fill-opacity:0.5;stroke:#ffffff;stroke-linejoin:miter;stroke-width:0.74235;"/>
   </g>
   <g id="patch_23">
    <path clip-path="url(#p6aa85e4565)" d="M 168.989377 252 
L 173.952389 252 
L 173.952389 249.118807 
L 168.989377 249.118807 
z
" style="fill:#696969;fill-opacity:0.5;stroke:#ffffff;stroke-linejoin:miter;stroke-width:0.74235;"/>
   </g>
   <g id="patch_24">
    <path clip-path="url(#p6aa85e4565)" d="M 173.952389 252 
L 178.915402 252 
L 178.915402 250.199255 
L 173.952389 250.199255 
z
" style="fill:#696969;fill-opacity:0.5;stroke:#ffffff;stroke-linejoin:miter;stroke-width:0.74235;"/>
   </g>
   <g id="patch_25">
    <path clip-path="url(#p6aa85e4565)" d="M 178.915402 252 
L 183.878414 252 
L 183.878414 251.639851 
L 178.915402 251.639851 
z
" style="fill:#696969;fill-opacity:0.5;stroke:#ffffff;stroke-linejoin:miter;stroke-width:0.74235;"/>
   </g>
   <g id="patch_26">
    <path clip-path="url(#p6aa85e4565)" d="M 183.878414 252 
L 188.841427 252 
L 188.841427 250.199255 
L 183.878414 250.199255 
z
" style="fill:#696969;fill-opacity:0.5;stroke:#ffffff;stroke-linejoin:miter;stroke-width:0.74235;"/>
   </g>
   <g id="patch_27">
    <path clip-path="url(#p6aa85e4565)" d="M 188.841427 252 
L 193.80444 252 
L 193.80444 251.279702 
L 188.841427 251.279702 
z
" style="fill:#696969;fill-opacity:0.5;stroke:#ffffff;stroke-linejoin:miter;stroke-width:0.74235;"/>
   </g>
   <g id="patch_28">
    <path clip-path="url(#p6aa85e4565)" d="M 193.80444 252 
L 198.767452 252 
L 198.767452 251.279702 
L 193.80444 251.279702 
z
" style="fill:#696969;fill-opacity:0.5;stroke:#ffffff;stroke-linejoin:miter;stroke-width:0.74235;"/>
   </g>
   <g id="patch_29">
    <path clip-path="url(#p6aa85e4565)" d="M 198.767452 252 
L 203.730465 252 
L 203.730465 251.279702 
L 198.767452 251.279702 
z
" style="fill:#696969;fill-opacity:0.5;stroke:#ffffff;stroke-linejoin:miter;stroke-width:0.74235;"/>
   </g>
   <g id="patch_30">
    <path clip-path="url(#p6aa85e4565)" d="M 203.730465 252 
L 208.693478 252 
L 208.693478 252 
L 203.730465 252 
z
" style="fill:#696969;fill-opacity:0.5;stroke:#ffffff;stroke-linejoin:miter;stroke-width:0.74235;"/>
   </g>
   <g id="patch_31">
    <path clip-path="url(#p6aa85e4565)" d="M 208.693478 252 
L 213.65649 252 
L 213.65649 251.279702 
L 208.693478 251.279702 
z
" style="fill:#696969;fill-opacity:0.5;stroke:#ffffff;stroke-linejoin:miter;stroke-width:0.74235;"/>
   </g>
   <g id="patch_32">
    <path clip-path="url(#p6aa85e4565)" d="M 213.65649 252 
L 218.619503 252 
L 218.619503 251.279702 
L 213.65649 251.279702 
z
" style="fill:#696969;fill-opacity:0.5;stroke:#ffffff;stroke-linejoin:miter;stroke-width:0.74235;"/>
   </g>
   <g id="patch_33">
    <path clip-path="url(#p6aa85e4565)" d="M 218.619503 252 
L 223.582515 252 
L 223.582515 252 
L 218.619503 252 
z
" style="fill:#696969;fill-opacity:0.5;stroke:#ffffff;stroke-linejoin:miter;stroke-width:0.74235;"/>
   </g>
   <g id="patch_34">
    <path clip-path="url(#p6aa85e4565)" d="M 223.582515 252 
L 228.545528 252 
L 228.545528 252 
L 223.582515 252 
z
" style="fill:#696969;fill-opacity:0.5;stroke:#ffffff;stroke-linejoin:miter;stroke-width:0.74235;"/>
   </g>
   <g id="patch_35">
    <path clip-path="url(#p6aa85e4565)" d="M 228.545528 252 
L 233.508541 252 
L 233.508541 251.279702 
L 228.545528 251.279702 
z
" style="fill:#696969;fill-opacity:0.5;stroke:#ffffff;stroke-linejoin:miter;stroke-width:0.74235;"/>
   </g>
   <g id="patch_36">
    <path clip-path="url(#p6aa85e4565)" d="M 233.508541 252 
L 238.471553 252 
L 238.471553 252 
L 233.508541 252 
z
" style="fill:#696969;fill-opacity:0.5;stroke:#ffffff;stroke-linejoin:miter;stroke-width:0.74235;"/>
   </g>
   <g id="patch_37">
    <path clip-path="url(#p6aa85e4565)" d="M 238.471553 252 
L 243.434566 252 
L 243.434566 252 
L 238.471553 252 
z
" style="fill:#696969;fill-opacity:0.5;stroke:#ffffff;stroke-linejoin:miter;stroke-width:0.74235;"/>
   </g>
   <g id="patch_38">
    <path clip-path="url(#p6aa85e4565)" d="M 243.434566 252 
L 248.397578 252 
L 248.397578 251.639851 
L 243.434566 251.639851 
z
" style="fill:#696969;fill-opacity:0.5;stroke:#ffffff;stroke-linejoin:miter;stroke-width:0.74235;"/>
   </g>
   <g id="patch_39">
    <path clip-path="url(#p6aa85e4565)" d="M 248.397578 252 
L 253.360591 252 
L 253.360591 252 
L 248.397578 252 
z
" style="fill:#696969;fill-opacity:0.5;stroke:#ffffff;stroke-linejoin:miter;stroke-width:0.74235;"/>
   </g>
   <g id="patch_40">
    <path clip-path="url(#p6aa85e4565)" d="M 253.360591 252 
L 258.323604 252 
L 258.323604 252 
L 253.360591 252 
z
" style="fill:#696969;fill-opacity:0.5;stroke:#ffffff;stroke-linejoin:miter;stroke-width:0.74235;"/>
   </g>
   <g id="patch_41">
    <path clip-path="url(#p6aa85e4565)" d="M 258.323604 252 
L 263.286616 252 
L 263.286616 252 
L 258.323604 252 
z
" style="fill:#696969;fill-opacity:0.5;stroke:#ffffff;stroke-linejoin:miter;stroke-width:0.74235;"/>
   </g>
   <g id="patch_42">
    <path clip-path="url(#p6aa85e4565)" d="M 263.286616 252 
L 268.249629 252 
L 268.249629 252 
L 263.286616 252 
z
" style="fill:#696969;fill-opacity:0.5;stroke:#ffffff;stroke-linejoin:miter;stroke-width:0.74235;"/>
   </g>
   <g id="patch_43">
    <path clip-path="url(#p6aa85e4565)" d="M 268.249629 252 
L 273.212642 252 
L 273.212642 251.639851 
L 268.249629 251.639851 
z
" style="fill:#696969;fill-opacity:0.5;stroke:#ffffff;stroke-linejoin:miter;stroke-width:0.74235;"/>
   </g>
   <g id="patch_44">
    <path clip-path="url(#p6aa85e4565)" d="M 69.218182 252 
L 76.641685 252 
L 76.641685 224.268522 
L 69.218182 224.268522 
z
" style="fill:#a9a9a9;fill-opacity:0.5;stroke:#ffffff;stroke-linejoin:miter;stroke-width:0.74235;"/>
   </g>
   <g id="patch_45">
    <path clip-path="url(#p6aa85e4565)" d="M 76.641685 252 
L 84.065188 252 
L 84.065188 172.407056 
L 76.641685 172.407056 
z
" style="fill:#a9a9a9;fill-opacity:0.5;stroke:#ffffff;stroke-linejoin:miter;stroke-width:0.74235;"/>
   </g>
   <g id="patch_46">
    <path clip-path="url(#p6aa85e4565)" d="M 84.065188 252 
L 91.488692 252 
L 91.488692 44.914286 
L 84.065188 44.914286 
z
" style="fill:#a9a9a9;fill-opacity:0.5;stroke:#ffffff;stroke-linejoin:miter;stroke-width:0.74235;"/>
   </g>
   <g id="patch_47">
    <path clip-path="url(#p6aa85e4565)" d="M 91.488692 252 
L 98.912195 252 
L 98.912195 84.530683 
L 91.488692 84.530683 
z
" style="fill:#a9a9a9;fill-opacity:0.5;stroke:#ffffff;stroke-linejoin:miter;stroke-width:0.74235;"/>
   </g>
   <g id="patch_48">
    <path clip-path="url(#p6aa85e4565)" d="M 98.912195 252 
L 106.335698 252 
L 106.335698 186.813019 
L 98.912195 186.813019 
z
" style="fill:#a9a9a9;fill-opacity:0.5;stroke:#ffffff;stroke-linejoin:miter;stroke-width:0.74235;"/>
   </g>
   <g id="patch_49">
    <path clip-path="url(#p6aa85e4565)" d="M 106.335698 252 
L 113.759202 252 
L 113.759202 222.827925 
L 106.335698 222.827925 
z
" style="fill:#a9a9a9;fill-opacity:0.5;stroke:#ffffff;stroke-linejoin:miter;stroke-width:0.74235;"/>
   </g>
   <g id="patch_50">
    <path clip-path="url(#p6aa85e4565)" d="M 113.759202 252 
L 121.182705 252 
L 121.182705 244.43687 
L 113.759202 244.43687 
z
" style="fill:#a9a9a9;fill-opacity:0.5;stroke:#ffffff;stroke-linejoin:miter;stroke-width:0.74235;"/>
   </g>
   <g id="patch_51">
    <path clip-path="url(#p6aa85e4565)" d="M 121.182705 252 
L 128.606208 252 
L 128.606208 249.118807 
L 121.182705 249.118807 
z
" style="fill:#a9a9a9;fill-opacity:0.5;stroke:#ffffff;stroke-linejoin:miter;stroke-width:0.74235;"/>
   </g>
   <g id="patch_52">
    <path clip-path="url(#p6aa85e4565)" d="M 128.606208 252 
L 136.029712 252 
L 136.029712 251.279702 
L 128.606208 251.279702 
z
" style="fill:#a9a9a9;fill-opacity:0.5;stroke:#ffffff;stroke-linejoin:miter;stroke-width:0.74235;"/>
   </g>
   <g id="patch_53">
    <path clip-path="url(#p6aa85e4565)" d="M 136.029712 252 
L 143.453215 252 
L 143.453215 251.639851 
L 136.029712 251.639851 
z
" style="fill:#a9a9a9;fill-opacity:0.5;stroke:#ffffff;stroke-linejoin:miter;stroke-width:0.74235;"/>
   </g>
   <g id="patch_54">
    <path clip-path="url(#p6aa85e4565)" d="M 143.453215 252 
L 150.876718 252 
L 150.876718 252 
L 143.453215 252 
z
" style="fill:#a9a9a9;fill-opacity:0.5;stroke:#ffffff;stroke-linejoin:miter;stroke-width:0.74235;"/>
   </g>
   <g id="patch_55">
    <path clip-path="url(#p6aa85e4565)" d="M 150.876718 252 
L 158.300222 252 
L 158.300222 251.279702 
L 150.876718 251.279702 
z
" style="fill:#a9a9a9;fill-opacity:0.5;stroke:#ffffff;stroke-linejoin:miter;stroke-width:0.74235;"/>
   </g>
   <g id="patch_56">
    <path clip-path="url(#p6aa85e4565)" d="M 158.300222 252 
L 165.723725 252 
L 165.723725 251.639851 
L 158.300222 251.639851 
z
" style="fill:#a9a9a9;fill-opacity:0.5;stroke:#ffffff;stroke-linejoin:miter;stroke-width:0.74235;"/>
   </g>
   <g id="patch_57">
    <path clip-path="url(#p6aa85e4565)" d="M 165.723725 252 
L 173.147228 252 
L 173.147228 252 
L 165.723725 252 
z
" style="fill:#a9a9a9;fill-opacity:0.5;stroke:#ffffff;stroke-linejoin:miter;stroke-width:0.74235;"/>
   </g>
   <g id="patch_58">
    <path clip-path="url(#p6aa85e4565)" d="M 173.147228 252 
L 180.570732 252 
L 180.570732 252 
L 173.147228 252 
z
" style="fill:#a9a9a9;fill-opacity:0.5;stroke:#ffffff;stroke-linejoin:miter;stroke-width:0.74235;"/>
   </g>
   <g id="patch_59">
    <path clip-path="url(#p6aa85e4565)" d="M 180.570732 252 
L 187.994235 252 
L 187.994235 252 
L 180.570732 252 
z
" style="fill:#a9a9a9;fill-opacity:0.5;stroke:#ffffff;stroke-linejoin:miter;stroke-width:0.74235;"/>
   </g>
   <g id="patch_60">
    <path clip-path="url(#p6aa85e4565)" d="M 187.994235 252 
L 195.417738 252 
L 195.417738 252 
L 187.994235 252 
z
" style="fill:#a9a9a9;fill-opacity:0.5;stroke:#ffffff;stroke-linejoin:miter;stroke-width:0.74235;"/>
   </g>
   <g id="patch_61">
    <path clip-path="url(#p6aa85e4565)" d="M 195.417738 252 
L 202.841242 252 
L 202.841242 252 
L 195.417738 252 
z
" style="fill:#a9a9a9;fill-opacity:0.5;stroke:#ffffff;stroke-linejoin:miter;stroke-width:0.74235;"/>
   </g>
   <g id="patch_62">
    <path clip-path="url(#p6aa85e4565)" d="M 202.841242 252 
L 210.264745 252 
L 210.264745 251.279702 
L 202.841242 251.279702 
z
" style="fill:#a9a9a9;fill-opacity:0.5;stroke:#ffffff;stroke-linejoin:miter;stroke-width:0.74235;"/>
   </g>
   <g id="patch_63">
    <path clip-path="url(#p6aa85e4565)" d="M 210.264745 252 
L 217.688248 252 
L 217.688248 252 
L 210.264745 252 
z
" style="fill:#a9a9a9;fill-opacity:0.5;stroke:#ffffff;stroke-linejoin:miter;stroke-width:0.74235;"/>
   </g>
   <g id="patch_64">
    <path clip-path="url(#p6aa85e4565)" d="M 217.688248 252 
L 225.111752 252 
L 225.111752 252 
L 217.688248 252 
z
" style="fill:#a9a9a9;fill-opacity:0.5;stroke:#ffffff;stroke-linejoin:miter;stroke-width:0.74235;"/>
   </g>
   <g id="patch_65">
    <path clip-path="url(#p6aa85e4565)" d="M 225.111752 252 
L 232.535255 252 
L 232.535255 252 
L 225.111752 252 
z
" style="fill:#a9a9a9;fill-opacity:0.5;stroke:#ffffff;stroke-linejoin:miter;stroke-width:0.74235;"/>
   </g>
   <g id="patch_66">
    <path clip-path="url(#p6aa85e4565)" d="M 232.535255 252 
L 239.958758 252 
L 239.958758 251.639851 
L 232.535255 251.639851 
z
" style="fill:#a9a9a9;fill-opacity:0.5;stroke:#ffffff;stroke-linejoin:miter;stroke-width:0.74235;"/>
   </g>
   <g id="patch_67">
    <path clip-path="url(#p6aa85e4565)" d="M 239.958758 252 
L 247.382262 252 
L 247.382262 251.639851 
L 239.958758 251.639851 
z
" style="fill:#a9a9a9;fill-opacity:0.5;stroke:#ffffff;stroke-linejoin:miter;stroke-width:0.74235;"/>
   </g>
   <g id="patch_68">
    <path clip-path="url(#p6aa85e4565)" d="M 247.382262 252 
L 254.805765 252 
L 254.805765 252 
L 247.382262 252 
z
" style="fill:#a9a9a9;fill-opacity:0.5;stroke:#ffffff;stroke-linejoin:miter;stroke-width:0.74235;"/>
   </g>
   <g id="patch_69">
    <path clip-path="url(#p6aa85e4565)" d="M 254.805765 252 
L 262.229268 252 
L 262.229268 252 
L 254.805765 252 
z
" style="fill:#a9a9a9;fill-opacity:0.5;stroke:#ffffff;stroke-linejoin:miter;stroke-width:0.74235;"/>
   </g>
   <g id="patch_70">
    <path clip-path="url(#p6aa85e4565)" d="M 262.229268 252 
L 269.652772 252 
L 269.652772 252 
L 262.229268 252 
z
" style="fill:#a9a9a9;fill-opacity:0.5;stroke:#ffffff;stroke-linejoin:miter;stroke-width:0.74235;"/>
   </g>
   <g id="patch_71">
    <path clip-path="url(#p6aa85e4565)" d="M 269.652772 252 
L 277.076275 252 
L 277.076275 252 
L 269.652772 252 
z
" style="fill:#a9a9a9;fill-opacity:0.5;stroke:#ffffff;stroke-linejoin:miter;stroke-width:0.74235;"/>
   </g>
   <g id="patch_72">
    <path clip-path="url(#p6aa85e4565)" d="M 277.076275 252 
L 284.499778 252 
L 284.499778 252 
L 277.076275 252 
z
" style="fill:#a9a9a9;fill-opacity:0.5;stroke:#ffffff;stroke-linejoin:miter;stroke-width:0.74235;"/>
   </g>
   <g id="patch_73">
    <path clip-path="url(#p6aa85e4565)" d="M 284.499778 252 
L 291.923282 252 
L 291.923282 252 
L 284.499778 252 
z
" style="fill:#a9a9a9;fill-opacity:0.5;stroke:#ffffff;stroke-linejoin:miter;stroke-width:0.74235;"/>
   </g>
   <g id="patch_74">
    <path clip-path="url(#p6aa85e4565)" d="M 291.923282 252 
L 299.346785 252 
L 299.346785 252 
L 291.923282 252 
z
" style="fill:#a9a9a9;fill-opacity:0.5;stroke:#ffffff;stroke-linejoin:miter;stroke-width:0.74235;"/>
   </g>
   <g id="patch_75">
    <path clip-path="url(#p6aa85e4565)" d="M 299.346785 252 
L 306.770288 252 
L 306.770288 252 
L 299.346785 252 
z
" style="fill:#a9a9a9;fill-opacity:0.5;stroke:#ffffff;stroke-linejoin:miter;stroke-width:0.74235;"/>
   </g>
   <g id="patch_76">
    <path clip-path="url(#p6aa85e4565)" d="M 306.770288 252 
L 314.193792 252 
L 314.193792 252 
L 306.770288 252 
z
" style="fill:#a9a9a9;fill-opacity:0.5;stroke:#ffffff;stroke-linejoin:miter;stroke-width:0.74235;"/>
   </g>
   <g id="patch_77">
    <path clip-path="url(#p6aa85e4565)" d="M 314.193792 252 
L 321.617295 252 
L 321.617295 252 
L 314.193792 252 
z
" style="fill:#a9a9a9;fill-opacity:0.5;stroke:#ffffff;stroke-linejoin:miter;stroke-width:0.74235;"/>
   </g>
   <g id="patch_78">
    <path clip-path="url(#p6aa85e4565)" d="M 321.617295 252 
L 329.040798 252 
L 329.040798 252 
L 321.617295 252 
z
" style="fill:#a9a9a9;fill-opacity:0.5;stroke:#ffffff;stroke-linejoin:miter;stroke-width:0.74235;"/>
   </g>
   <g id="patch_79">
    <path clip-path="url(#p6aa85e4565)" d="M 329.040798 252 
L 336.464302 252 
L 336.464302 252 
L 329.040798 252 
z
" style="fill:#a9a9a9;fill-opacity:0.5;stroke:#ffffff;stroke-linejoin:miter;stroke-width:0.74235;"/>
   </g>
   <g id="patch_80">
    <path clip-path="url(#p6aa85e4565)" d="M 336.464302 252 
L 343.887805 252 
L 343.887805 252 
L 336.464302 252 
z
" style="fill:#a9a9a9;fill-opacity:0.5;stroke:#ffffff;stroke-linejoin:miter;stroke-width:0.74235;"/>
   </g>
   <g id="patch_81">
    <path clip-path="url(#p6aa85e4565)" d="M 343.887805 252 
L 351.311308 252 
L 351.311308 252 
L 343.887805 252 
z
" style="fill:#a9a9a9;fill-opacity:0.5;stroke:#ffffff;stroke-linejoin:miter;stroke-width:0.74235;"/>
   </g>
   <g id="patch_82">
    <path clip-path="url(#p6aa85e4565)" d="M 351.311308 252 
L 358.734812 252 
L 358.734812 252 
L 351.311308 252 
z
" style="fill:#a9a9a9;fill-opacity:0.5;stroke:#ffffff;stroke-linejoin:miter;stroke-width:0.74235;"/>
   </g>
   <g id="patch_83">
    <path clip-path="url(#p6aa85e4565)" d="M 358.734812 252 
L 366.158315 252 
L 366.158315 251.639851 
L 358.734812 251.639851 
z
" style="fill:#a9a9a9;fill-opacity:0.5;stroke:#ffffff;stroke-linejoin:miter;stroke-width:0.74235;"/>
   </g>
   <g id="patch_84">
    <path clip-path="url(#p6aa85e4565)" d="M 366.158315 252 
L 373.581818 252 
L 373.581818 251.639851 
L 366.158315 251.639851 
z
" style="fill:#a9a9a9;fill-opacity:0.5;stroke:#ffffff;stroke-linejoin:miter;stroke-width:0.74235;"/>
   </g>
   <g id="line2d_1">
    <path clip-path="url(#p6aa85e4565)" d="M 69.729124 250.382314 
L 74.841775 248.670397 
L 79.954426 246.815897 
L 81.999487 245.879058 
L 84.044547 244.666163 
L 86.089608 243.045446 
L 88.134668 240.898842 
L 90.179729 238.16725 
L 92.224789 234.885777 
L 94.26985 231.15468 
L 96.31491 227.047313 
L 98.359971 222.544387 
L 100.405031 217.586177 
L 107.562743 199.25161 
L 109.607803 195.327001 
L 110.630334 193.743643 
L 111.652864 192.410077 
L 112.675394 191.319195 
L 113.697924 190.46681 
L 114.720455 189.854234 
L 115.742985 189.487089 
L 116.765515 189.370991 
L 117.788045 189.505895 
L 118.810576 189.881359 
L 119.833106 190.474545 
L 120.855636 191.251758 
L 122.900697 193.198643 
L 125.968287 196.624175 
L 128.013348 199.140818 
L 130.058408 201.986738 
L 132.103469 205.31933 
L 134.148529 209.128654 
L 137.21612 215.076692 
L 139.26118 218.570759 
L 141.306241 221.42055 
L 143.351301 223.774867 
L 147.441422 228.303837 
L 151.531543 233.422406 
L 154.599134 237.126034 
L 156.644194 239.32265 
L 158.689255 241.283922 
L 160.734315 243.02948 
L 162.779376 244.562166 
L 164.824436 245.871735 
L 166.869497 246.968824 
L 169.937087 248.305997 
L 173.004678 249.361769 
L 176.072269 250.127674 
L 179.13986 250.603788 
L 182.20745 250.840203 
L 204.703116 251.576702 
L 209.815767 251.567381 
L 215.950948 251.51133 
L 229.243841 251.736917 
L 234.356493 251.719025 
L 243.559265 251.848582 
L 250.716976 251.910836 
L 260.942279 251.993589 
L 273.212642 251.850268 
L 273.212642 251.850268 
" style="fill:none;stroke:#696969;stroke-linecap:round;stroke-width:1.5;"/>
   </g>
   <g id="line2d_2">
    <path clip-path="url(#p6aa85e4565)" d="M 69.218182 235.858644 
L 70.747647 231.409427 
L 72.277113 227.439045 
L 73.806578 222.943936 
L 75.336044 216.167545 
L 76.865509 205.518713 
L 78.394975 190.342353 
L 79.92444 171.014833 
L 81.453906 148.540383 
L 84.512837 100.149125 
L 86.042302 78.711317 
L 87.571768 62.829374 
L 89.101233 54.655358 
L 90.630699 54.749154 
L 92.160164 61.980802 
L 93.68963 74.359743 
L 95.219095 90.138352 
L 96.748561 108.248612 
L 101.336958 165.633655 
L 102.866423 180.981021 
L 104.395889 193.267319 
L 105.925354 203.002174 
L 107.45482 210.915612 
L 108.984285 217.589953 
L 110.513751 223.420908 
L 112.043216 228.685143 
L 113.572682 233.526458 
L 115.102147 237.897036 
L 116.631613 241.592385 
L 118.161078 244.413435 
L 119.690544 246.338512 
L 121.220009 247.563852 
L 122.749475 248.385585 
L 125.808406 249.603393 
L 128.867337 250.47789 
L 131.926268 250.959381 
L 144.161992 251.95121 
L 147.220923 251.877666 
L 156.397716 251.339046 
L 159.456647 251.479287 
L 165.574509 251.92657 
L 171.692371 251.999331 
L 200.752216 251.905368 
L 208.399543 251.463113 
L 211.458474 251.619994 
L 216.046871 251.93026 
L 222.164733 251.997678 
L 228.282595 251.893701 
L 232.870991 251.695344 
L 235.929922 251.764919 
L 240.518319 251.901372 
L 248.165646 251.718369 
L 255.812974 251.990115 
L 281.813888 252 
L 358.287163 251.91712 
L 364.405025 251.686503 
L 370.522887 251.741672 
L 373.581818 251.686356 
L 373.581818 251.686356 
" style="fill:none;stroke:#a9a9a9;stroke-linecap:round;stroke-width:1.5;"/>
   </g>
   <g id="patch_85">
    <path d="M 54 252 
L 54 34.56 
" style="fill:none;stroke:#262626;stroke-linecap:square;stroke-linejoin:miter;stroke-width:0.8;"/>
   </g>
   <g id="patch_86">
    <path d="M 388.8 252 
L 388.8 34.56 
" style="fill:none;stroke:#262626;stroke-linecap:square;stroke-linejoin:miter;stroke-width:0.8;"/>
   </g>
   <g id="patch_87">
    <path d="M 54 252 
L 388.8 252 
" style="fill:none;stroke:#262626;stroke-linecap:square;stroke-linejoin:miter;stroke-width:0.8;"/>
   </g>
   <g id="patch_88">
    <path d="M 54 34.56 
L 388.8 34.56 
" style="fill:none;stroke:#262626;stroke-linecap:square;stroke-linejoin:miter;stroke-width:0.8;"/>
   </g>
   <g id="text_20">
    <!-- Rate distribution -->
    <defs>
     <path id="ArialMT-32"/>
     <path d="M 40.234375 0 
L 40.234375 6.546875 
Q 35.296875 -1.171875 25.734375 -1.171875 
Q 19.53125 -1.171875 14.328125 2.25 
Q 9.125 5.671875 6.265625 11.796875 
Q 3.421875 17.921875 3.421875 25.875 
Q 3.421875 33.640625 6 39.96875 
Q 8.59375 46.296875 13.765625 49.65625 
Q 18.953125 53.03125 25.34375 53.03125 
Q 30.03125 53.03125 33.6875 51.046875 
Q 37.359375 49.078125 39.65625 45.90625 
L 39.65625 71.578125 
L 48.390625 71.578125 
L 48.390625 0 
z
M 12.453125 25.875 
Q 12.453125 15.921875 16.640625 10.984375 
Q 20.84375 6.0625 26.5625 6.0625 
Q 32.328125 6.0625 36.34375 10.765625 
Q 40.375 15.484375 40.375 25.140625 
Q 40.375 35.796875 36.265625 40.765625 
Q 32.171875 45.75 26.171875 45.75 
Q 20.3125 45.75 16.375 40.96875 
Q 12.453125 36.1875 12.453125 25.875 
z
" id="ArialMT-100"/>
     <path d="M 6.59375 0 
L 6.59375 51.859375 
L 14.5 51.859375 
L 14.5 44.484375 
Q 20.21875 53.03125 31 53.03125 
Q 35.6875 53.03125 39.625 51.34375 
Q 43.5625 49.65625 45.515625 46.921875 
Q 47.46875 44.1875 48.25 40.4375 
Q 48.734375 37.984375 48.734375 31.890625 
L 48.734375 0 
L 39.9375 0 
L 39.9375 31.546875 
Q 39.9375 36.921875 38.90625 39.578125 
Q 37.890625 42.234375 35.28125 43.8125 
Q 32.671875 45.40625 29.15625 45.40625 
Q 23.53125 45.40625 19.453125 41.84375 
Q 15.375 38.28125 15.375 28.328125 
L 15.375 0 
z
" id="ArialMT-110"/>
    </defs>
    <g style="fill:#262626;" transform="translate(178.04625 28.56)scale(0.12 -0.12)">
     <use xlink:href="#ArialMT-82"/>
     <use x="72.216797" xlink:href="#ArialMT-97"/>
     <use x="127.832031" xlink:href="#ArialMT-116"/>
     <use x="155.615234" xlink:href="#ArialMT-101"/>
     <use x="211.230469" xlink:href="#ArialMT-32"/>
     <use x="239.013672" xlink:href="#ArialMT-100"/>
     <use x="294.628906" xlink:href="#ArialMT-105"/>
     <use x="316.845703" xlink:href="#ArialMT-115"/>
     <use x="366.845703" xlink:href="#ArialMT-116"/>
     <use x="394.628906" xlink:href="#ArialMT-114"/>
     <use x="427.929688" xlink:href="#ArialMT-105"/>
     <use x="450.146484" xlink:href="#ArialMT-98"/>
     <use x="505.761719" xlink:href="#ArialMT-117"/>
     <use x="561.376953" xlink:href="#ArialMT-116"/>
     <use x="589.160156" xlink:href="#ArialMT-105"/>
     <use x="611.376953" xlink:href="#ArialMT-111"/>
     <use x="666.992188" xlink:href="#ArialMT-110"/>
    </g>
   </g>
   <g id="legend_1">
    <g id="patch_89">
     <path d="M 260.317187 70.967813 
L 381.8 70.967813 
Q 383.8 70.967813 383.8 68.967813 
L 383.8 41.56 
Q 383.8 39.56 381.8 39.56 
L 260.317187 39.56 
Q 258.317187 39.56 258.317187 41.56 
L 258.317187 68.967813 
Q 258.317187 70.967813 260.317187 70.967813 
z
" style="fill:#ffffff;opacity:0.8;stroke:#cccccc;stroke-linejoin:miter;"/>
    </g>
    <g id="line2d_3">
     <path d="M 262.317187 47.217813 
L 282.317187 47.217813 
" style="fill:none;stroke:#696969;stroke-linecap:round;stroke-width:1.5;"/>
    </g>
    <g id="line2d_4"/>
    <g id="text_21">
     <!-- Positive Burst Rate -->
     <defs>
      <path d="M 21 0 
L 1.265625 51.859375 
L 10.546875 51.859375 
L 21.6875 20.796875 
Q 23.484375 15.765625 25 10.359375 
Q 26.171875 14.453125 28.265625 20.21875 
L 39.796875 51.859375 
L 48.828125 51.859375 
L 29.203125 0 
z
" id="ArialMT-118"/>
     </defs>
     <g style="fill:#262626;" transform="translate(290.317187 50.717813)scale(0.1 -0.1)">
      <use xlink:href="#ArialMT-80"/>
      <use x="66.699219" xlink:href="#ArialMT-111"/>
      <use x="122.314453" xlink:href="#ArialMT-115"/>
      <use x="172.314453" xlink:href="#ArialMT-105"/>
      <use x="194.53125" xlink:href="#ArialMT-116"/>
      <use x="222.314453" xlink:href="#ArialMT-105"/>
      <use x="244.53125" xlink:href="#ArialMT-118"/>
      <use x="294.53125" xlink:href="#ArialMT-101"/>
      <use x="350.146484" xlink:href="#ArialMT-32"/>
      <use x="377.929688" xlink:href="#ArialMT-66"/>
      <use x="444.628906" xlink:href="#ArialMT-117"/>
      <use x="500.244141" xlink:href="#ArialMT-114"/>
      <use x="533.544922" xlink:href="#ArialMT-115"/>
      <use x="583.544922" xlink:href="#ArialMT-116"/>
      <use x="611.328125" xlink:href="#ArialMT-32"/>
      <use x="639.111328" xlink:href="#ArialMT-82"/>
      <use x="711.328125" xlink:href="#ArialMT-97"/>
      <use x="766.943359" xlink:href="#ArialMT-116"/>
      <use x="794.726562" xlink:href="#ArialMT-101"/>
     </g>
    </g>
    <g id="line2d_5">
     <path d="M 262.317187 61.363125 
L 282.317187 61.363125 
" style="fill:none;stroke:#a9a9a9;stroke-linecap:round;stroke-width:1.5;"/>
    </g>
    <g id="line2d_6"/>
    <g id="text_22">
     <!-- Negative Burst Rate -->
     <defs>
      <path d="M 7.625 0 
L 7.625 71.578125 
L 17.328125 71.578125 
L 54.9375 15.375 
L 54.9375 71.578125 
L 64.015625 71.578125 
L 64.015625 0 
L 54.296875 0 
L 16.703125 56.25 
L 16.703125 0 
z
" id="ArialMT-78"/>
      <path d="M 4.984375 -4.296875 
L 13.53125 -5.5625 
Q 14.0625 -9.515625 16.5 -11.328125 
Q 19.78125 -13.765625 25.4375 -13.765625 
Q 31.546875 -13.765625 34.859375 -11.328125 
Q 38.1875 -8.890625 39.359375 -4.5 
Q 40.046875 -1.8125 39.984375 6.78125 
Q 34.234375 0 25.640625 0 
Q 14.9375 0 9.078125 7.71875 
Q 3.21875 15.4375 3.21875 26.21875 
Q 3.21875 33.640625 5.90625 39.90625 
Q 8.59375 46.1875 13.6875 49.609375 
Q 18.796875 53.03125 25.6875 53.03125 
Q 34.859375 53.03125 40.828125 45.609375 
L 40.828125 51.859375 
L 48.921875 51.859375 
L 48.921875 7.03125 
Q 48.921875 -5.078125 46.453125 -10.125 
Q 44 -15.1875 38.640625 -18.109375 
Q 33.296875 -21.046875 25.484375 -21.046875 
Q 16.21875 -21.046875 10.5 -16.875 
Q 4.78125 -12.703125 4.984375 -4.296875 
z
M 12.25 26.859375 
Q 12.25 16.65625 16.296875 11.96875 
Q 20.359375 7.28125 26.46875 7.28125 
Q 32.515625 7.28125 36.609375 11.9375 
Q 40.71875 16.609375 40.71875 26.5625 
Q 40.71875 36.078125 36.5 40.90625 
Q 32.28125 45.75 26.3125 45.75 
Q 20.453125 45.75 16.34375 40.984375 
Q 12.25 36.234375 12.25 26.859375 
z
" id="ArialMT-103"/>
     </defs>
     <g style="fill:#262626;" transform="translate(290.317187 64.863125)scale(0.1 -0.1)">
      <use xlink:href="#ArialMT-78"/>
      <use x="72.216797" xlink:href="#ArialMT-101"/>
      <use x="127.832031" xlink:href="#ArialMT-103"/>
      <use x="183.447266" xlink:href="#ArialMT-97"/>
      <use x="239.0625" xlink:href="#ArialMT-116"/>
      <use x="266.845703" xlink:href="#ArialMT-105"/>
      <use x="289.0625" xlink:href="#ArialMT-118"/>
      <use x="339.0625" xlink:href="#ArialMT-101"/>
      <use x="394.677734" xlink:href="#ArialMT-32"/>
      <use x="422.460938" xlink:href="#ArialMT-66"/>
      <use x="489.160156" xlink:href="#ArialMT-117"/>
      <use x="544.775391" xlink:href="#ArialMT-114"/>
      <use x="578.076172" xlink:href="#ArialMT-115"/>
      <use x="628.076172" xlink:href="#ArialMT-116"/>
      <use x="655.859375" xlink:href="#ArialMT-32"/>
      <use x="683.642578" xlink:href="#ArialMT-82"/>
      <use x="755.859375" xlink:href="#ArialMT-97"/>
      <use x="811.474609" xlink:href="#ArialMT-116"/>
      <use x="839.257812" xlink:href="#ArialMT-101"/>
     </g>
    </g>
   </g>
  </g>
 </g>
 <defs>
  <clipPath id="p6aa85e4565">
   <rect height="217.44" width="334.8" x="54" y="34.56"/>
  </clipPath>
 </defs>
</svg>
